<svg width="144" height="43" viewBox="0 0 144 43" fill="none" xmlns="http://www.w3.org/2000/svg">
<path d="M2.08875 22V6.19565H5.11415L13.8517 18.0038H13.2195C13.1593 17.5372 13.1066 17.0856 13.0615 16.6491C13.0163 16.1975 12.9712 15.746 12.926 15.2944C12.8959 14.8278 12.8658 14.3537 12.8357 13.872C12.8207 13.3753 12.8056 12.8561 12.7905 12.3142C12.7755 11.7573 12.768 11.1552 12.768 10.508V6.19565H16.0869V22H13.0163L4.09816 10.079L4.95611 10.1016C5.03136 10.8843 5.09157 11.5541 5.13673 12.111C5.19693 12.6529 5.24209 13.127 5.27219 13.5334C5.3023 13.9398 5.32487 14.2935 5.33993 14.5945C5.37003 14.8956 5.38508 15.1816 5.38508 15.4525C5.40013 15.7234 5.40766 16.0094 5.40766 16.3104V22H2.08875ZM24.4126 22.2258C23.374 22.2258 22.4408 21.9624 21.6129 21.4356C20.7851 20.8937 20.1303 20.1637 19.6487 19.2455C19.1821 18.3123 18.9488 17.2361 18.9488 16.0169C18.9488 14.8278 19.1821 13.7667 19.6487 12.8335C20.1303 11.9003 20.7776 11.1627 21.5904 10.6209C22.4182 10.079 23.3589 9.80807 24.4126 9.80807C24.9695 9.80807 25.5038 9.89838 26.0156 10.079C26.5424 10.2446 27.009 10.4779 27.4154 10.7789C27.8368 11.0799 28.1755 11.4186 28.4314 11.7949C28.6873 12.1561 28.8303 12.54 28.8604 12.9464L28.0476 13.0818V5.29254H31.2536V22H28.2282L28.0927 19.2455L28.7249 19.3133C28.6948 19.6896 28.5593 20.0508 28.3185 20.397C28.0777 20.7432 27.7541 21.0593 27.3477 21.3452C26.9563 21.6162 26.5048 21.8344 25.993 22C25.4963 22.1505 24.9695 22.2258 24.4126 22.2258ZM25.135 19.5616C25.7371 19.5616 26.2639 19.4111 26.7155 19.1101C27.167 18.809 27.5208 18.3951 27.7766 17.8683C28.0325 17.3415 28.1605 16.7244 28.1605 16.0169C28.1605 15.3245 28.0325 14.7149 27.7766 14.1881C27.5208 13.6463 27.167 13.2323 26.7155 12.9464C26.2639 12.6453 25.7371 12.4948 25.135 12.4948C24.533 12.4948 24.0062 12.6453 23.5546 12.9464C23.1181 13.2323 22.7719 13.6463 22.516 14.1881C22.2752 14.7149 22.1548 15.3245 22.1548 16.0169C22.1548 16.7244 22.2752 17.3415 22.516 17.8683C22.7719 18.3951 23.1181 18.809 23.5546 19.1101C24.0062 19.4111 24.533 19.5616 25.135 19.5616ZM34.6501 22V10.0564H37.8561V22H34.6501ZM36.2305 7.59546C35.6134 7.59546 35.1318 7.44495 34.7856 7.14391C34.4394 6.84288 34.2663 6.4139 34.2663 5.85698C34.2663 5.34523 34.4394 4.9313 34.7856 4.61521C35.1468 4.28408 35.6285 4.11851 36.2305 4.11851C36.8477 4.11851 37.3293 4.27655 37.6755 4.59264C38.0217 4.89367 38.1948 5.31512 38.1948 5.85698C38.1948 6.3838 38.0142 6.80525 37.6529 7.12133C37.3067 7.43742 36.8326 7.59546 36.2305 7.59546ZM45.9539 22.2258C44.9154 22.2258 43.9821 21.9624 43.1543 21.4356C42.3265 20.8937 41.6717 20.1637 41.19 19.2455C40.7234 18.3123 40.4901 17.2361 40.4901 16.0169C40.4901 14.8278 40.7234 13.7667 41.19 12.8335C41.6717 11.9003 42.3189 11.1627 43.1317 10.6209C43.9596 10.079 44.9003 9.80807 45.9539 9.80807C46.5108 9.80807 47.0452 9.89838 47.5569 10.079C48.0838 10.2446 48.5504 10.4779 48.9568 10.7789C49.3782 11.0799 49.7169 11.4186 49.9728 11.7949C50.2286 12.1561 50.3716 12.54 50.4017 12.9464L49.5889 13.0818V5.29254H52.795V22H49.7696L49.6341 19.2455L50.2663 19.3133C50.2362 19.6896 50.1007 20.0508 49.8599 20.397C49.619 20.7432 49.2954 21.0593 48.889 21.3452C48.4977 21.6162 48.0461 21.8344 47.5344 22C47.0377 22.1505 46.5108 22.2258 45.9539 22.2258ZM46.6764 19.5616C47.2785 19.5616 47.8053 19.4111 48.2568 19.1101C48.7084 18.809 49.0621 18.3951 49.318 17.8683C49.5739 17.3415 49.7018 16.7244 49.7018 16.0169C49.7018 15.3245 49.5739 14.7149 49.318 14.1881C49.0621 13.6463 48.7084 13.2323 48.2568 12.9464C47.8053 12.6453 47.2785 12.4948 46.6764 12.4948C46.0743 12.4948 45.5475 12.6453 45.096 12.9464C44.6595 13.2323 44.3133 13.6463 44.0574 14.1881C43.8166 14.7149 43.6962 15.3245 43.6962 16.0169C43.6962 16.7244 43.8166 17.3415 44.0574 17.8683C44.3133 18.3951 44.6595 18.809 45.096 19.1101C45.5475 19.4111 46.0743 19.5616 46.6764 19.5616ZM56.1915 22V10.0564H59.3975V22H56.1915ZM57.7719 7.59546C57.1548 7.59546 56.6731 7.44495 56.3269 7.14391C55.9808 6.84288 55.8077 6.4139 55.8077 5.85698C55.8077 5.34523 55.9808 4.9313 56.3269 4.61521C56.6882 4.28408 57.1698 4.11851 57.7719 4.11851C58.389 4.11851 58.8707 4.27655 59.2169 4.59264C59.5631 4.89367 59.7362 5.31512 59.7362 5.85698C59.7362 6.3838 59.5555 6.80525 59.1943 7.12133C58.8481 7.43742 58.374 7.59546 57.7719 7.59546ZM67.2921 22.2258C66.2987 22.2258 65.4031 21.9548 64.6054 21.413C63.8076 20.8711 63.1754 20.1336 62.7088 19.2004C62.2422 18.2672 62.0089 17.1985 62.0089 15.9943C62.0089 14.7902 62.2422 13.7291 62.7088 12.8109C63.1905 11.8777 63.8377 11.1477 64.6505 10.6209C65.4633 10.079 66.389 9.80807 67.4276 9.80807C68.0146 9.80807 68.5489 9.89838 69.0306 10.079C69.5273 10.2446 69.9563 10.4779 70.3175 10.7789C70.6938 11.0799 71.0099 11.4261 71.2658 11.8175C71.5216 12.2088 71.7023 12.6303 71.8076 13.0818L71.1303 12.9689V10.0564H74.3137V22H71.0851V19.1326L71.8076 19.0649C71.6872 19.4864 71.4915 19.8852 71.2206 20.2615C70.9497 20.6378 70.611 20.9765 70.2046 21.2775C69.8133 21.5635 69.3692 21.7968 68.8725 21.9774C68.3758 22.143 67.849 22.2258 67.2921 22.2258ZM68.1726 19.4487C68.7747 19.4487 69.3015 19.3057 69.7531 19.0198C70.2046 18.7338 70.5508 18.3349 70.7916 17.8231C71.0475 17.2963 71.1754 16.6867 71.1754 15.9943C71.1754 15.317 71.0475 14.7225 70.7916 14.2107C70.5508 13.699 70.2046 13.3001 69.7531 13.0141C69.3015 12.7131 68.7747 12.5625 68.1726 12.5625C67.5856 12.5625 67.0663 12.7131 66.6148 13.0141C66.1783 13.3001 65.8321 13.699 65.5762 14.2107C65.3203 14.7225 65.1924 15.317 65.1924 15.9943C65.1924 16.6867 65.3203 17.2963 65.5762 17.8231C65.8321 18.3349 66.1783 18.7338 66.6148 19.0198C67.0663 19.3057 67.5856 19.4487 68.1726 19.4487ZM77.5055 22V10.0564H80.5986L80.6663 12.3368L80.1922 12.4271C80.3578 12.0357 80.576 11.682 80.847 11.3659C81.1179 11.0498 81.434 10.7789 81.7952 10.5531C82.1715 10.3274 82.5629 10.1543 82.9693 10.0338C83.3757 9.89838 83.7821 9.83065 84.1885 9.83065C84.8056 9.83065 85.3625 9.92849 85.8592 10.1242C86.3559 10.3198 86.7774 10.6284 87.1236 11.0498C87.4697 11.4562 87.7407 11.9981 87.9363 12.6754L87.4396 12.6303L87.5977 12.269C87.7934 11.9078 88.0417 11.5842 88.3427 11.2982C88.6438 10.9972 88.9824 10.7413 89.3587 10.5306C89.735 10.3048 90.1264 10.1317 90.5328 10.0113C90.9392 9.89086 91.338 9.83065 91.7294 9.83065C92.6626 9.83065 93.4378 10.0188 94.0549 10.3951C94.672 10.7563 95.1311 11.3057 95.4321 12.0433C95.7482 12.7808 95.9063 13.6839 95.9063 14.7526V22H92.7002V14.9784C92.7002 14.4365 92.625 13.9925 92.4745 13.6463C92.3239 13.3001 92.1057 13.0442 91.8197 12.8786C91.5337 12.698 91.165 12.6077 90.7134 12.6077C90.3672 12.6077 90.0436 12.6679 89.7426 12.7883C89.4566 12.8937 89.2007 13.0517 88.9749 13.2625C88.7642 13.4581 88.5986 13.6914 88.4782 13.9624C88.3578 14.2333 88.2976 14.5343 88.2976 14.8655V22H85.0916V14.9558C85.0916 14.4591 85.0088 14.0376 84.8432 13.6914C84.6927 13.3302 84.4744 13.0593 84.1885 12.8786C83.9025 12.698 83.5488 12.6077 83.1273 12.6077C82.7811 12.6077 82.4575 12.6679 82.1565 12.7883C81.8705 12.8937 81.6221 13.0517 81.4114 13.2625C81.2007 13.4581 81.0276 13.6914 80.8921 13.9624C80.7717 14.2333 80.7115 14.5268 80.7115 14.8429V22H77.5055ZM103.43 22.2258C102.436 22.2258 101.541 21.9548 100.743 21.413C99.9451 20.8711 99.3129 20.1336 98.8463 19.2004C98.3797 18.2672 98.1464 17.1985 98.1464 15.9943C98.1464 14.7902 98.3797 13.7291 98.8463 12.8109C99.3279 11.8777 99.9752 11.1477 100.788 10.6209C101.601 10.079 102.526 9.80807 103.565 9.80807C104.152 9.80807 104.686 9.89838 105.168 10.079C105.665 10.2446 106.094 10.4779 106.455 10.7789C106.831 11.0799 107.147 11.4261 107.403 11.8175C107.659 12.2088 107.84 12.6303 107.945 13.0818L107.268 12.9689V10.0564H110.451V22H107.223V19.1326L107.945 19.0649C107.825 19.4864 107.629 19.8852 107.358 20.2615C107.087 20.6378 106.748 20.9765 106.342 21.2775C105.951 21.5635 105.507 21.7968 105.01 21.9774C104.513 22.143 103.986 22.2258 103.43 22.2258ZM104.31 19.4487C104.912 19.4487 105.439 19.3057 105.891 19.0198C106.342 18.7338 106.688 18.3349 106.929 17.8231C107.185 17.2963 107.313 16.6867 107.313 15.9943C107.313 15.317 107.185 14.7225 106.929 14.2107C106.688 13.699 106.342 13.3001 105.891 13.0141C105.439 12.7131 104.912 12.5625 104.31 12.5625C103.723 12.5625 103.204 12.7131 102.752 13.0141C102.316 13.3001 101.97 13.699 101.714 14.2107C101.458 14.7225 101.33 15.317 101.33 15.9943C101.33 16.6867 101.458 17.2963 101.714 17.8231C101.97 18.3349 102.316 18.7338 102.752 19.0198C103.204 19.3057 103.723 19.4487 104.31 19.4487ZM116.713 18.4102L115.765 15.7686L121.41 10.0564H125.632L116.713 18.4102ZM113.666 22V5.29254H116.872V22H113.666ZM121.748 22L117.459 16.6039L119.716 14.7977L125.609 22H121.748ZM131.343 22.2258C130.35 22.2258 129.454 21.9548 128.656 21.413C127.858 20.8711 127.226 20.1336 126.76 19.2004C126.293 18.2672 126.06 17.1985 126.06 15.9943C126.06 14.7902 126.293 13.7291 126.76 12.8109C127.241 11.8777 127.889 11.1477 128.701 10.6209C129.514 10.079 130.44 9.80807 131.478 9.80807C132.065 9.80807 132.6 9.89838 133.081 10.079C133.578 10.2446 134.007 10.4779 134.368 10.7789C134.745 11.0799 135.061 11.4261 135.317 11.8175C135.572 12.2088 135.753 12.6303 135.858 13.0818L135.181 12.9689V10.0564H138.365V22H135.136V19.1326L135.858 19.0649C135.738 19.4864 135.542 19.8852 135.271 20.2615C135.001 20.6378 134.662 20.9765 134.255 21.2775C133.864 21.5635 133.42 21.7968 132.923 21.9774C132.427 22.143 131.9 22.2258 131.343 22.2258ZM132.223 19.4487C132.826 19.4487 133.352 19.3057 133.804 19.0198C134.255 18.7338 134.602 18.3349 134.842 17.8231C135.098 17.2963 135.226 16.6867 135.226 15.9943C135.226 15.317 135.098 14.7225 134.842 14.2107C134.602 13.699 134.255 13.3001 133.804 13.0141C133.352 12.7131 132.826 12.5625 132.223 12.5625C131.636 12.5625 131.117 12.7131 130.666 13.0141C130.229 13.3001 129.883 13.699 129.627 14.2107C129.371 14.7225 129.243 15.317 129.243 15.9943C129.243 16.6867 129.371 17.2963 129.627 17.8231C129.883 18.3349 130.229 18.7338 130.666 19.0198C131.117 19.3057 131.636 19.4487 132.223 19.4487Z" fill="#1E2729"/>
<path d="M2.60393 39.2217V32.2498H0.369364V31.4007H5.79935V32.2498H3.47541V39.2217H2.60393ZM13.1992 39.3334C12.6183 39.3334 12.1006 39.2068 11.6462 38.9535C11.1993 38.7003 10.8492 38.3465 10.596 37.8921C10.3427 37.4378 10.2161 36.9164 10.2161 36.3279C10.2161 35.8736 10.2869 35.4639 10.4284 35.0989C10.5699 34.7265 10.7673 34.4025 11.0205 34.1269C11.2812 33.8513 11.5904 33.639 11.9479 33.49C12.3054 33.3336 12.6927 33.2554 13.1099 33.2554C13.5046 33.2554 13.8622 33.3262 14.1825 33.4677C14.5102 33.6092 14.7895 33.8066 15.0204 34.0598C15.2588 34.3056 15.4375 34.5999 15.5567 34.9425C15.6759 35.2851 15.728 35.6613 15.7131 36.0709L15.702 36.462H10.8418L10.7189 35.7581H15.0651L14.864 35.948V35.6799C14.8491 35.4118 14.7709 35.1548 14.6294 34.909C14.4878 34.6557 14.2867 34.4509 14.026 34.2945C13.7728 34.138 13.4674 34.0598 13.1099 34.0598C12.6927 34.0598 12.3315 34.1455 12.0261 34.3168C11.7207 34.4807 11.4861 34.7265 11.3222 35.0542C11.1583 35.382 11.0764 35.7879 11.0764 36.2721C11.0764 36.7339 11.1658 37.1361 11.3446 37.4787C11.5233 37.8139 11.7766 38.0746 12.1043 38.2608C12.4395 38.447 12.8417 38.5401 13.311 38.5401C13.5866 38.5401 13.8584 38.4954 14.1266 38.4061C14.4022 38.3092 14.7039 38.123 15.0316 37.8474L15.4673 38.4508C15.296 38.6221 15.0912 38.7748 14.8528 38.9088C14.6145 39.0355 14.3538 39.1397 14.0707 39.2217C13.7877 39.2962 13.4972 39.3334 13.1992 39.3334ZM24.1656 39.3334C23.6144 39.3334 23.1228 39.2031 22.6908 38.9424C22.2588 38.6742 21.9162 38.313 21.6629 37.8586C21.4171 37.3968 21.2942 36.8754 21.2942 36.2944C21.2942 35.7134 21.4171 35.1957 21.6629 34.7414C21.9162 34.2796 22.2588 33.9183 22.6908 33.6576C23.1228 33.3969 23.6182 33.2666 24.1768 33.2666C24.6758 33.2666 25.1302 33.3671 25.5399 33.5682C25.9495 33.7619 26.2773 34.0338 26.5231 34.3839L26.0315 34.9872C25.89 34.801 25.7186 34.6371 25.5175 34.4956C25.3239 34.3541 25.1116 34.2461 24.8807 34.1716C24.6572 34.0896 24.4338 34.0487 24.2103 34.0487C23.8155 34.0487 23.4617 34.1492 23.1489 34.3503C22.8361 34.544 22.5865 34.8084 22.4003 35.1436C22.2216 35.4788 22.1322 35.8624 22.1322 36.2944C22.1322 36.7264 22.2216 37.1137 22.4003 37.4564C22.5865 37.7916 22.8361 38.056 23.1489 38.2496C23.4617 38.4433 23.8118 38.5401 24.1991 38.5401C24.4226 38.5401 24.6423 38.5066 24.8583 38.4396C25.0743 38.3651 25.2792 38.2608 25.4728 38.1267C25.6665 37.9927 25.8453 37.8251 26.0091 37.624L26.5007 38.2273C26.2475 38.5625 25.9086 38.8306 25.484 39.0317C25.0594 39.2329 24.62 39.3334 24.1656 39.3334ZM32.3929 39.2217V30.9538H33.2309V34.6632L33.0633 34.8308C33.1452 34.5254 33.2979 34.2572 33.5214 34.0263C33.7448 33.788 34.0055 33.6018 34.3035 33.4677C34.6089 33.3336 34.918 33.2666 35.2308 33.2666C35.6777 33.2666 36.0502 33.3522 36.3481 33.5235C36.646 33.6949 36.8658 33.9593 37.0073 34.3168C37.1563 34.6743 37.2307 35.1287 37.2307 35.6799V39.2217H36.3816V35.7246C36.3816 35.3373 36.3295 35.0207 36.2252 34.7749C36.1284 34.5216 35.9757 34.3354 35.7671 34.2163C35.5585 34.0971 35.2978 34.0412 34.985 34.0487C34.7392 34.0487 34.5083 34.0934 34.2923 34.1827C34.0763 34.2647 33.8901 34.3801 33.7337 34.5291C33.5772 34.6781 33.4543 34.8494 33.365 35.043C33.2756 35.2367 33.2309 35.4453 33.2309 35.6687V39.2217H32.8175C32.7653 39.2217 32.7058 39.2217 32.6387 39.2217C32.5717 39.2217 32.4897 39.2217 32.3929 39.2217ZM51.7939 39.2217V33.3895H52.6319V39.2217H51.7939ZM52.2073 32.1269C51.9987 32.1269 51.8386 32.0748 51.7269 31.9705C51.6226 31.8588 51.5704 31.7098 51.5704 31.5236C51.5704 31.3374 51.6263 31.1884 51.738 31.0767C51.8498 30.965 52.0062 30.9091 52.2073 30.9091C52.4084 30.9091 52.5648 30.965 52.6765 31.0767C52.7883 31.181 52.8441 31.3299 52.8441 31.5236C52.8441 31.7024 52.7883 31.8476 52.6765 31.9594C52.5648 32.0711 52.4084 32.1269 52.2073 32.1269ZM59.2662 39.2217V33.3895H60.0929L60.1265 34.6073L59.9924 34.6632C60.0669 34.4099 60.2121 34.179 60.4281 33.9705C60.6441 33.7619 60.9011 33.5943 61.1991 33.4677C61.5044 33.3336 61.8173 33.2666 62.1376 33.2666C62.5696 33.2666 62.9308 33.3522 63.2213 33.5235C63.5118 33.6949 63.7316 33.9593 63.8805 34.3168C64.0295 34.6743 64.104 35.1287 64.104 35.6799V39.2217H63.2548V35.7246C63.2548 35.3373 63.2027 35.0207 63.0984 34.7749C63.0016 34.5216 62.8489 34.3354 62.6403 34.2163C62.4318 34.0971 62.1748 34.0412 61.8694 34.0487C61.6162 34.0487 61.3815 34.0934 61.1655 34.1827C60.9495 34.2647 60.7633 34.3801 60.6069 34.5291C60.4505 34.6781 60.3276 34.8494 60.2382 35.043C60.1488 35.2367 60.1041 35.4453 60.1041 35.6687V39.2217H59.6907C59.6386 39.2217 59.579 39.2217 59.512 39.2217C59.4449 39.2217 59.363 39.2217 59.2662 39.2217ZM70.7314 39.2217V33.3895H71.5693V39.2217H70.7314ZM71.1448 32.1269C70.9362 32.1269 70.7761 32.0748 70.6643 31.9705C70.5601 31.8588 70.5079 31.7098 70.5079 31.5236C70.5079 31.3374 70.5638 31.1884 70.6755 31.0767C70.7872 30.965 70.9437 30.9091 71.1448 30.9091C71.3459 30.9091 71.5023 30.965 71.614 31.0767C71.7258 31.181 71.7816 31.3299 71.7816 31.5236C71.7816 31.7024 71.7258 31.8476 71.614 31.9594C71.5023 32.0711 71.3459 32.1269 71.1448 32.1269ZM79.0081 39.2217V31.8588H79.846V39.2217H79.0081ZM77.6897 34.1939V33.3895H81.3208V34.1939H77.6897ZM87.3776 39.2217V33.3895H88.2155V39.2217H87.3776ZM87.791 32.1269C87.5824 32.1269 87.4223 32.0748 87.3105 31.9705C87.2062 31.8588 87.1541 31.7098 87.1541 31.5236C87.1541 31.3374 87.21 31.1884 87.3217 31.0767C87.4334 30.965 87.5898 30.9091 87.791 30.9091C87.9921 30.9091 88.1485 30.965 88.2602 31.0767C88.3719 31.181 88.4278 31.3299 88.4278 31.5236C88.4278 31.7024 88.3719 31.8476 88.2602 31.9594C88.1485 32.0711 87.9921 32.1269 87.791 32.1269ZM97.1291 39.3334C96.6226 39.3334 96.1645 39.2031 95.7548 38.9424C95.3451 38.6742 95.0211 38.313 94.7828 37.8586C94.5444 37.3968 94.4253 36.8754 94.4253 36.2944C94.4253 35.706 94.5482 35.1846 94.794 34.7302C95.0398 34.2758 95.3675 33.9183 95.7772 33.6576C96.1943 33.3969 96.6598 33.2666 97.1738 33.2666C97.4792 33.2666 97.7622 33.3113 98.0229 33.4006C98.2836 33.49 98.5145 33.6167 98.7156 33.7805C98.9242 33.9369 99.0955 34.1232 99.2296 34.3392C99.3711 34.5477 99.4679 34.7749 99.5201 35.0207L99.2743 34.8978L99.3078 33.3895H100.146V39.2217H99.2966V37.7916L99.5201 37.6463C99.4679 37.8698 99.3674 38.0858 99.2184 38.2943C99.0694 38.4954 98.8869 38.6742 98.6709 38.8306C98.4624 38.9871 98.224 39.11 97.9559 39.1993C97.6952 39.2887 97.4196 39.3334 97.1291 39.3334ZM97.319 38.529C97.7063 38.529 98.0527 38.4359 98.3581 38.2496C98.6635 38.056 98.9018 37.7916 99.0731 37.4564C99.2519 37.1137 99.3413 36.7264 99.3413 36.2944C99.3413 35.8624 99.2519 35.4788 99.0731 35.1436C98.9018 34.8084 98.6635 34.544 98.3581 34.3503C98.0527 34.1567 97.7063 34.0598 97.319 34.0598C96.9242 34.0598 96.5742 34.1567 96.2688 34.3503C95.9708 34.544 95.7325 34.8084 95.5537 35.1436C95.3824 35.4788 95.2967 35.8624 95.2967 36.2944C95.2967 36.719 95.3824 37.1026 95.5537 37.4452C95.725 37.7804 95.9634 38.0448 96.2688 38.2385C96.5742 38.4321 96.9242 38.529 97.319 38.529ZM107.387 39.2217V31.8588H108.225V39.2217H107.387ZM106.069 34.1939V33.3895H109.7V34.1939H106.069ZM115.757 39.2217V33.3895H116.594V39.2217H115.757ZM116.17 32.1269C115.961 32.1269 115.801 32.0748 115.689 31.9705C115.585 31.8588 115.533 31.7098 115.533 31.5236C115.533 31.3374 115.589 31.1884 115.701 31.0767C115.812 30.965 115.969 30.9091 116.17 30.9091C116.371 30.9091 116.527 30.965 116.639 31.0767C116.751 31.181 116.807 31.3299 116.807 31.5236C116.807 31.7024 116.751 31.8476 116.639 31.9594C116.527 32.0711 116.371 32.1269 116.17 32.1269ZM125.039 39.2217L122.581 33.3895H123.508L125.452 38.1603L125.229 38.2832L127.363 33.3895H128.257L125.642 39.2217H125.039ZM136.451 39.3334C135.87 39.3334 135.352 39.2068 134.898 38.9535C134.451 38.7003 134.101 38.3465 133.848 37.8921C133.595 37.4378 133.468 36.9164 133.468 36.3279C133.468 35.8736 133.539 35.4639 133.68 35.0989C133.822 34.7265 134.019 34.4025 134.272 34.1269C134.533 33.8513 134.842 33.639 135.2 33.49C135.557 33.3336 135.945 33.2554 136.362 33.2554C136.756 33.2554 137.114 33.3262 137.434 33.4677C137.762 33.6092 138.041 33.8066 138.272 34.0598C138.511 34.3056 138.689 34.5999 138.809 34.9425C138.928 35.2851 138.98 35.6613 138.965 36.0709L138.954 36.462H134.094L133.971 35.7581H138.317L138.116 35.948V35.6799C138.101 35.4118 138.023 35.1548 137.881 34.909C137.74 34.6557 137.539 34.4509 137.278 34.2945C137.025 34.138 136.719 34.0598 136.362 34.0598C135.945 34.0598 135.583 34.1455 135.278 34.3168C134.973 34.4807 134.738 34.7265 134.574 35.0542C134.41 35.382 134.328 35.7879 134.328 36.2721C134.328 36.7339 134.418 37.1361 134.596 37.4787C134.775 37.8139 135.028 38.0746 135.356 38.2608C135.691 38.447 136.094 38.5401 136.563 38.5401C136.838 38.5401 137.11 38.4954 137.378 38.4061C137.654 38.3092 137.956 38.123 138.283 37.8474L138.719 38.4508C138.548 38.6221 138.343 38.7748 138.105 38.9088C137.866 39.0355 137.606 39.1397 137.323 39.2217C137.04 39.2962 136.749 39.3334 136.451 39.3334Z" fill="#6E6E63"/>
</svg>
