<svg width="42" height="34" viewBox="0 0 42 34" fill="none" xmlns="http://www.w3.org/2000/svg">
<g clip-path="url(#clip0_1728_311)">
<path d="M30.499 22.7918C29.5464 22.7918 28.7715 22.0163 28.7715 21.0637C28.7715 20.1111 29.5464 19.3362 30.499 19.3362C31.4518 19.3362 32.2266 20.111 32.2266 21.0637C32.2266 22.0165 31.4518 22.7918 30.499 22.7918ZM11.4037 22.7918C10.4511 22.7918 9.67625 22.0163 9.67625 21.0637C9.67625 20.1111 10.451 19.3362 11.4037 19.3362C12.3563 19.3362 13.1312 20.111 13.1312 21.0637C13.1312 22.0165 12.3565 22.7918 11.4037 22.7918ZM31.1186 12.3852L34.5714 6.40523C34.6664 6.2402 34.6921 6.0442 34.6428 5.86025C34.5935 5.6763 34.4733 5.51941 34.3084 5.42402C34.1434 5.32902 33.9474 5.30335 33.7635 5.35264C33.5795 5.40193 33.4227 5.52215 33.3272 5.68695L29.8313 11.7425C27.1577 10.5225 24.1553 9.84281 20.9514 9.84281C17.7475 9.84281 14.745 10.5225 12.0716 11.7425L8.5755 5.68695C8.48008 5.52215 8.32319 5.40193 8.13925 5.35264C7.95531 5.30335 7.75933 5.32902 7.59429 5.42402C7.42937 5.51932 7.30903 5.67621 7.25972 5.8602C7.21042 6.04419 7.23619 6.24023 7.33136 6.40523L10.7841 12.3852C4.85523 15.6098 0.800251 21.612 0.207031 28.7033H41.6957C41.102 21.6122 37.047 15.6099 31.1186 12.3852Z" fill="white"/>
</g>
<defs>
<clipPath id="clip0_1728_311">
<rect width="42" height="24" fill="white" transform="translate(0 5.10156)"/>
</clipPath>
</defs>
</svg>
