<svg width="20" height="24" stroke="#ffffff" fill="#ffffff" viewBox="0 0 20 24" xmlns="http://www.w3.org/2000/svg">
<path d="M16.4363 12.7512C16.4097 9.86581 18.8594 8.46208 18.9714 8.39672C17.584 6.42452 15.4337 6.15505 14.678 6.13356C12.8719 5.94825 11.12 7.18726 10.2 7.18726C9.26161 7.18726 7.84485 6.15147 6.3179 6.18191C4.35299 6.21145 2.51478 7.32065 1.50661 9.04309C-0.573999 12.5551 0.977736 17.7162 2.97112 20.555C3.96827 21.9453 5.13345 23.4976 6.65855 23.443C8.1506 23.383 8.70794 22.5155 10.5085 22.5155C12.2925 22.5155 12.8159 23.443 14.3713 23.4081C15.9726 23.383 16.9808 22.0115 17.9431 20.6087C19.0954 19.0151 19.5581 17.4458 19.5765 17.3652C19.5389 17.3527 16.4666 16.2095 16.4363 12.7512Z" fill="white"/>
<path d="M13.4981 4.2661C14.3006 3.2876 14.8497 1.95638 14.6973 0.605469C13.5358 0.655602 12.0832 1.3888 11.2467 2.34581C10.5067 3.18913 9.84558 4.57137 10.0164 5.87126C11.3211 5.96615 12.6607 5.22937 13.4981 4.2661Z" fill="white"/>
</svg>
