<svg width="20" height="22" fill="currentColor" viewBox="0 0 20 22" fill="none" xmlns="http://www.w3.org/2000/svg">
<path d="M0.909943 1.01984C0.668214 1.26656 0.52832 1.65068 0.52832 2.14813V19.8918C0.52832 20.3892 0.668214 20.7733 0.909943 21.0201L0.969604 21.0742L11.1675 11.1353V10.9006L0.969604 0.961674L0.909943 1.01984Z" fill="url(#paint0_linear_1449_323)"/>
<path d="M14.5615 14.457L11.166 11.1424V10.9077L14.5657 7.59305L14.6418 7.63618L18.6678 9.86968C19.8168 10.5035 19.8168 11.5466 18.6678 12.1844L14.6418 14.4139L14.5615 14.457Z" fill="url(#paint1_linear_1449_323)"/>
<path d="M14.6454 14.4125L11.1697 11.0237L0.912109 21.0258C1.29373 21.4169 1.91606 21.464 2.62376 21.0729L14.6454 14.4125Z" fill="url(#paint2_linear_1449_323)"/>
<path d="M14.6454 7.63457L2.62376 0.974189C1.91606 0.587062 1.29373 0.634197 0.912109 1.02534L11.1697 11.0234L14.6454 7.63457Z" fill="url(#paint3_linear_1449_323)"/>
<defs>
<linearGradient id="paint0_linear_1449_323" x1="10.262" y1="20.0766" x2="-3.19876" y2="6.27061" gradientUnits="userSpaceOnUse">
<stop stop-color="#00A0FF"/>
<stop offset="0.0066" stop-color="#00A1FF"/>
<stop offset="0.2601" stop-color="#00BEFF"/>
<stop offset="0.5122" stop-color="#00D2FF"/>
<stop offset="0.7604" stop-color="#00DFFF"/>
<stop offset="1" stop-color="#00E3FF"/>
</linearGradient>
<linearGradient id="paint1_linear_1449_323" x1="20.164" y1="11.0239" x2="0.252202" y2="11.0239" gradientUnits="userSpaceOnUse">
<stop stop-color="#FFE000"/>
<stop offset="0.4087" stop-color="#FFBD00"/>
<stop offset="0.7754" stop-color="#FFA500"/>
<stop offset="1" stop-color="#FF9C00"/>
</linearGradient>
<linearGradient id="paint2_linear_1449_323" x1="12.7554" y1="9.18141" x2="-5.49854" y2="-9.54057" gradientUnits="userSpaceOnUse">
<stop stop-color="#FF3A44"/>
<stop offset="1" stop-color="#C31162"/>
</linearGradient>
<linearGradient id="paint3_linear_1449_323" x1="-1.66993" y1="26.9288" x2="6.48127" y2="18.5686" gradientUnits="userSpaceOnUse">
<stop stop-color="#32A071"/>
<stop offset="0.0685" stop-color="#2DA771"/>
<stop offset="0.4762" stop-color="#15CF74"/>
<stop offset="0.8009" stop-color="#06E775"/>
<stop offset="1" stop-color="#00F076"/>
</linearGradient>
</defs>
</svg>
