<svg width="74" height="71" viewBox="0 0 74 71" fill="none" xmlns="http://www.w3.org/2000/svg">
<rect x="0.5" width="73" height="71" rx="6" fill="#EDFCFF"/>
<path d="M48.7932 29.8267C48.7932 29.8267 48.7932 29.8267 48.7932 29.7201L48.7132 29.5201C48.6854 29.4776 48.6541 29.4375 48.6199 29.4001C48.5842 29.3436 48.5441 29.2901 48.4999 29.2401L48.3799 29.1467L48.1665 29.0401L38.1665 22.8667C37.9546 22.7343 37.7098 22.6641 37.4599 22.6641C37.21 22.6641 36.9651 22.7343 36.7532 22.8667L26.8332 29.0401L26.7132 29.1467L26.5932 29.2401C26.549 29.2901 26.5089 29.3436 26.4732 29.4001C26.4389 29.4375 26.4077 29.4776 26.3799 29.5201L26.2999 29.7201C26.2999 29.7201 26.2999 29.7201 26.2999 29.8267C26.2868 29.9419 26.2868 30.0582 26.2999 30.1734V41.8267C26.2994 42.0533 26.3567 42.2763 26.4664 42.4746C26.576 42.6729 26.7344 42.84 26.9265 42.9601L36.9265 49.1334C36.9881 49.1714 37.0558 49.1985 37.1265 49.2134C37.1265 49.2134 37.1932 49.2134 37.2332 49.2134C37.4588 49.2849 37.701 49.2849 37.9265 49.2134C37.9265 49.2134 37.9932 49.2134 38.0332 49.2134C38.104 49.1985 38.1717 49.1714 38.2332 49.1334L48.1665 42.9601C48.3587 42.84 48.5171 42.6729 48.6267 42.4746C48.7364 42.2763 48.7937 42.0533 48.7932 41.8267V30.1734C48.8063 30.0582 48.8063 29.9419 48.7932 29.8267ZM36.1665 45.6134L28.8332 41.0801V32.5734L36.1665 37.0934V45.6134ZM37.4999 34.7867L30.0332 30.1734L37.4999 25.5734L44.9665 30.1734L37.4999 34.7867ZM46.1665 41.0801L38.8332 45.6134V37.0934L46.1665 32.5734V41.0801Z" fill="#008391"/>
</svg>
