<svg width="45" height="44" viewBox="0 0 45 44" fill="none" xmlns="http://www.w3.org/2000/svg">
<rect x="1.25" y="0.5" width="43" height="43" rx="5.5" fill="#F7F7F8"/>
<rect x="1.25" y="0.5" width="43" height="43" rx="5.5" stroke="#F1F1F3"/>
<g clip-path="url(#clip0_1449_526)">
<path d="M32.75 22C32.75 16.4771 28.2729 12 22.75 12C17.2271 12 12.75 16.4771 12.75 22C12.75 26.9912 16.4068 31.1283 21.1875 31.8785V24.8906H18.6484V22H21.1875V19.7969C21.1875 17.2906 22.6805 15.9062 24.9646 15.9062C26.0584 15.9062 27.2031 16.1016 27.2031 16.1016V18.5625H25.9422C24.7 18.5625 24.3125 19.3334 24.3125 20.125V22H27.0859L26.6426 24.8906H24.3125V31.8785C29.0932 31.1283 32.75 26.9912 32.75 22Z" fill="#2EB454"/>
</g>
<defs>
<clipPath id="clip0_1449_526">
<rect width="20" height="20" fill="white" transform="translate(12.75 12)"/>
</clipPath>
</defs>
</svg>
