<svg width="33" height="33" viewBox="0 0 33 33" fill="none" xmlns="http://www.w3.org/2000/svg">
<path d="M28.367 3.36133H4.63366C4.24467 3.36133 3.87162 3.51585 3.59657 3.7909C3.32152 4.06596 3.16699 4.43901 3.16699 4.82799V28.5613C3.16699 28.7539 3.20493 28.9447 3.27864 29.1226C3.35234 29.3005 3.46038 29.4622 3.59657 29.5984C3.73276 29.7346 3.89445 29.8426 4.07239 29.9163C4.25033 29.9901 4.44105 30.028 4.63366 30.028H17.407V19.6947H13.9403V15.6947H17.407V12.6947C17.3352 11.9903 17.4183 11.2788 17.6506 10.61C17.8829 9.94126 18.2587 9.33139 18.7516 8.82321C19.2445 8.31503 19.8427 7.92085 20.5041 7.66831C21.1655 7.41577 21.8741 7.311 22.5803 7.36133C23.6181 7.35494 24.6554 7.40836 25.687 7.52133V11.1213H23.567C21.887 11.1213 21.567 11.9213 21.567 13.0813V15.6547H25.567L25.047 19.6547H21.567V30.028H28.367C28.5596 30.028 28.7503 29.9901 28.9283 29.9163C29.1062 29.8426 29.2679 29.7346 29.4041 29.5984C29.5403 29.4622 29.6483 29.3005 29.722 29.1226C29.7957 28.9447 29.8337 28.7539 29.8337 28.5613V4.82799C29.8337 4.63539 29.7957 4.44467 29.722 4.26673C29.6483 4.08878 29.5403 3.9271 29.4041 3.7909C29.2679 3.65471 29.1062 3.54668 28.9283 3.47297C28.7503 3.39926 28.5596 3.36133 28.367 3.36133Z" fill="#6E6E63"/>
</svg>
