<svg width="45" height="45" viewBox="0 0 45 45" fill="none" xmlns="http://www.w3.org/2000/svg">
<rect x="1.25" y="0.644531" width="43" height="42.9995" rx="5.5" fill="#F7F7F8"/>
<rect x="1.25" y="0.644531" width="43" height="42.9995" rx="5.5" stroke="#F1F1F3"/>
<path d="M23.778 12.1445C24.903 12.1475 25.4739 12.1535 25.9669 12.1675L26.1609 12.1745C26.3849 12.1825 26.6059 12.1925 26.8729 12.2045C27.9368 12.2545 28.6628 12.4225 29.2997 12.6695C29.9597 12.9235 30.5157 13.2675 31.0716 13.8224C31.5803 14.3222 31.9738 14.9269 32.2246 15.5944C32.4716 16.2313 32.6396 16.9573 32.6896 18.0222C32.7016 18.2882 32.7116 18.5092 32.7196 18.7342L32.7256 18.9282C32.7406 19.4202 32.7466 19.9911 32.7486 21.1161L32.7496 21.862V23.172C32.752 23.9013 32.7443 24.6307 32.7266 25.3599L32.7206 25.5539C32.7126 25.7788 32.7026 25.9998 32.6906 26.2658C32.6406 27.3308 32.4706 28.0557 32.2246 28.6937C31.9738 29.3612 31.5803 29.9659 31.0716 30.4656C30.5719 30.9743 29.9672 31.3677 29.2997 31.6185C28.6628 31.8655 27.9368 32.0335 26.8729 32.0835L26.1609 32.1135L25.9669 32.1195C25.4739 32.1335 24.903 32.1405 23.778 32.1425L23.032 32.1435H21.7231C20.9934 32.1461 20.2637 32.1384 19.5342 32.1205L19.3402 32.1145C19.1029 32.1055 18.8655 32.0952 18.6283 32.0835C17.5643 32.0335 16.8384 31.8655 16.2004 31.6185C15.5333 31.3676 14.9289 30.9742 14.4295 30.4656C13.9205 29.966 13.5266 29.3613 13.2755 28.6937C13.0286 28.0567 12.8606 27.3308 12.8106 26.2658L12.7806 25.5539L12.7756 25.3599C12.7571 24.6307 12.7488 23.9014 12.7506 23.172V21.1161C12.7478 20.3867 12.7551 19.6573 12.7726 18.9282L12.7796 18.7342C12.7876 18.5092 12.7976 18.2882 12.8096 18.0222C12.8596 16.9573 13.0276 16.2323 13.2745 15.5944C13.5262 14.9266 13.9207 14.3219 14.4305 13.8224C14.9296 13.314 15.5336 12.9206 16.2004 12.6695C16.8384 12.4225 17.5633 12.2545 18.6283 12.2045C18.8943 12.1925 19.1162 12.1825 19.3402 12.1745L19.5342 12.1685C20.2634 12.1508 20.9927 12.1431 21.7221 12.1455L23.778 12.1445ZM22.7501 17.1443C21.424 17.1443 20.1523 17.671 19.2147 18.6087C18.2771 19.5463 17.7503 20.818 17.7503 22.144C17.7503 23.47 18.2771 24.7417 19.2147 25.6794C20.1523 26.617 21.424 27.1438 22.7501 27.1438C24.0761 27.1438 25.3478 26.617 26.2854 25.6794C27.2231 24.7417 27.7498 23.47 27.7498 22.144C27.7498 20.818 27.2231 19.5463 26.2854 18.6087C25.3478 17.671 24.0761 17.1443 22.7501 17.1443ZM22.7501 19.1442C23.144 19.1441 23.5341 19.2216 23.8981 19.3723C24.2621 19.523 24.5928 19.7439 24.8714 20.0225C25.15 20.301 25.3711 20.6316 25.5219 20.9956C25.6727 21.3595 25.7503 21.7496 25.7504 22.1435C25.7505 22.5375 25.673 22.9276 25.5223 23.2916C25.3716 23.6555 25.1506 23.9863 24.8721 24.2649C24.5936 24.5435 24.263 24.7645 23.899 24.9153C23.5351 25.0662 23.145 25.1438 22.7511 25.1439C21.9555 25.1439 21.1924 24.8278 20.6299 24.2652C20.0673 23.7027 19.7512 22.9396 19.7512 22.144C19.7512 21.3484 20.0673 20.5854 20.6299 20.0228C21.1924 19.4602 21.9555 19.1442 22.7511 19.1442M28.0008 15.6444C27.6693 15.6444 27.3514 15.776 27.117 16.0105C26.8826 16.2449 26.7509 16.5628 26.7509 16.8943C26.7509 17.2258 26.8826 17.5437 27.117 17.7781C27.3514 18.0125 27.6693 18.1442 28.0008 18.1442C28.3323 18.1442 28.6502 18.0125 28.8846 17.7781C29.119 17.5437 29.2507 17.2258 29.2507 16.8943C29.2507 16.5628 29.119 16.2449 28.8846 16.0105C28.6502 15.776 28.3323 15.6444 28.0008 15.6444Z" fill="#2EB454"/>
</svg>
