<svg width="33" height="33" viewBox="0 0 33 33" fill="none" xmlns="http://www.w3.org/2000/svg">
<path d="M16.5003 13.388C15.8463 13.388 15.207 13.5819 14.6632 13.9453C14.1195 14.3086 13.6956 14.825 13.4454 15.4293C13.1951 16.0335 13.1296 16.6983 13.2572 17.3398C13.3848 17.9812 13.6997 18.5704 14.1622 19.0328C14.6246 19.4953 15.2138 19.8102 15.8552 19.9378C16.4967 20.0654 17.1615 19.9999 17.7657 19.7496C18.3699 19.4993 18.8864 19.0755 19.2497 18.5317C19.6131 17.988 19.807 17.3487 19.807 16.6947C19.807 16.2604 19.7215 15.8304 19.5553 15.4293C19.3891 15.0281 19.1455 14.6635 18.8385 14.3565C18.5314 14.0494 18.1669 13.8059 17.7657 13.6397C17.3645 13.4735 16.9346 13.388 16.5003 13.388ZM29.7403 10.1213C29.7333 9.09167 29.5437 8.07142 29.1803 7.10799C28.9127 6.40301 28.4986 5.76279 27.9654 5.22958C27.4322 4.69636 26.792 4.28228 26.087 4.01466C25.1236 3.65128 24.1033 3.46168 23.0737 3.45466C21.3537 3.36133 20.847 3.36133 16.5003 3.36133C12.1537 3.36133 11.647 3.36133 9.92699 3.45466C8.89734 3.46168 7.87709 3.65128 6.91366 4.01466C6.20867 4.28228 5.56845 4.69636 5.03524 5.22958C4.50203 5.76279 4.08795 6.40301 3.82033 7.10799C3.45694 8.07142 3.26734 9.09167 3.26033 10.1213C3.16699 11.8413 3.16699 12.348 3.16699 16.6947C3.16699 21.0413 3.16699 21.548 3.26033 23.268C3.27468 24.3013 3.46402 25.3246 3.82033 26.2947C4.08676 26.9964 4.5005 27.6329 5.03366 28.1613C5.56458 28.6977 6.20618 29.1118 6.91366 29.3747C7.87709 29.738 8.89734 29.9276 9.92699 29.9347C11.647 30.028 12.1537 30.028 16.5003 30.028C20.847 30.028 21.3537 30.028 23.0737 29.9347C24.1033 29.9276 25.1236 29.738 26.087 29.3747C26.7945 29.1118 27.4361 28.6977 27.967 28.1613C28.5002 27.6329 28.9139 26.9964 29.1803 26.2947C29.5434 25.3265 29.7329 24.3019 29.7403 23.268C29.8337 21.548 29.8337 21.0413 29.8337 16.6947C29.8337 12.348 29.8337 11.8413 29.7403 10.1213ZM26.3537 20.788C26.3109 21.6108 26.1353 22.4213 25.8337 23.188C25.5748 23.8276 25.19 24.4086 24.7021 24.8965C24.2142 25.3843 23.6332 25.7691 22.9937 26.028C22.2197 26.3128 21.4047 26.4704 20.5803 26.4947C19.527 26.4947 19.247 26.4947 16.5003 26.4947C13.7537 26.4947 13.4737 26.4947 12.4203 26.4947C11.596 26.4704 10.781 26.3128 10.007 26.028C9.3458 25.7823 8.74869 25.3903 8.26033 24.8813C7.77721 24.403 7.40412 23.8252 7.16699 23.188C6.88107 22.4148 6.7278 21.5989 6.71366 20.7747C6.71366 19.7213 6.71366 19.4413 6.71366 16.6947C6.71366 13.948 6.71366 13.668 6.71366 12.6147C6.7278 11.7904 6.88107 10.9745 7.16699 10.2013C7.4127 9.54013 7.80469 8.94303 8.31366 8.45466C8.7941 7.97416 9.37134 7.60145 10.007 7.36133C10.781 7.07654 11.596 6.91894 12.4203 6.89466C13.4737 6.89466 13.7537 6.89466 16.5003 6.89466C19.247 6.89466 19.527 6.89466 20.5803 6.89466C21.4047 6.91894 22.2197 7.07654 22.9937 7.36133C23.6549 7.60704 24.252 7.99903 24.7403 8.50799C25.2234 8.98633 25.5965 9.56417 25.8337 10.2013C26.1185 10.9753 26.276 11.7903 26.3003 12.6147C26.3003 13.668 26.3003 13.948 26.3003 16.6947C26.3003 19.4413 26.3937 19.7213 26.3537 20.7747V20.788ZM24.2203 10.868C24.0616 10.4373 23.8113 10.0462 23.4867 9.72161C23.1621 9.39704 22.771 9.14675 22.3403 8.98799C21.749 8.78301 21.1261 8.68372 20.5003 8.69466C19.4603 8.69466 19.167 8.69466 16.5003 8.69466C13.8337 8.69466 13.5403 8.69466 12.5003 8.69466C11.8713 8.70081 11.2484 8.81817 10.6603 9.04133C10.2362 9.19287 9.84925 9.43294 9.5251 9.7456C9.20096 10.0582 8.94707 10.4363 8.78033 10.8547C8.58669 11.4485 8.4921 12.0701 8.50033 12.6947C8.50033 13.7347 8.50033 14.028 8.50033 16.6947C8.50033 19.3613 8.50033 19.6547 8.50033 20.6947C8.51354 21.3229 8.63068 21.9447 8.84699 22.5347C9.00574 22.9653 9.25604 23.3565 9.58061 23.681C9.90518 24.0056 10.2963 24.2559 10.727 24.4147C11.2959 24.6239 11.8945 24.7409 12.5003 24.7613C13.5403 24.7613 13.8337 24.7613 16.5003 24.7613C19.167 24.7613 19.4603 24.7613 20.5003 24.7613C21.1293 24.7552 21.7522 24.6378 22.3403 24.4147C22.771 24.2559 23.1621 24.0056 23.4867 23.681C23.8113 23.3565 24.0616 22.9653 24.2203 22.5347C24.4435 21.9466 24.5608 21.3236 24.567 20.6947C24.567 19.6547 24.567 19.3613 24.567 16.6947C24.567 14.028 24.567 13.7347 24.567 12.6947C24.5674 12.0651 24.4498 11.441 24.2203 10.8547V10.868ZM16.5003 21.788C15.8321 21.788 15.1704 21.6562 14.5532 21.4C13.936 21.1439 13.3754 20.7685 12.9035 20.2954C12.4316 19.8223 12.0577 19.2607 11.8032 18.6428C11.5487 18.0249 11.4186 17.3629 11.4203 16.6947C11.4203 15.6867 11.7194 14.7015 12.2796 13.8636C12.8399 13.0257 13.6362 12.3729 14.5676 11.9878C15.4991 11.6027 16.5239 11.5026 17.5122 11.7002C18.5006 11.8978 19.4081 12.3842 20.1199 13.0979C20.8317 13.8115 21.3157 14.7203 21.5107 15.7092C21.7058 16.6981 21.603 17.7226 21.2154 18.6531C20.8279 19.5835 20.173 20.378 19.3337 20.9361C18.4943 21.4942 17.5083 21.7906 16.5003 21.788ZM21.8337 12.6013C21.5389 12.5701 21.2661 12.431 21.0679 12.2106C20.8697 11.9903 20.76 11.7044 20.76 11.408C20.76 11.1116 20.8697 10.8257 21.0679 10.6054C21.2661 10.385 21.5389 10.2459 21.8337 10.2147C22.1284 10.2459 22.4012 10.385 22.5994 10.6054C22.7977 10.8257 22.9073 11.1116 22.9073 11.408C22.9073 11.7044 22.7977 11.9903 22.5994 12.2106C22.4012 12.431 22.1284 12.5701 21.8337 12.6013Z" fill="#6E6E63"/>
</svg>
