<svg width="45" height="44" viewBox="0 0 45 44" fill="none" xmlns="http://www.w3.org/2000/svg">
<rect x="1.25" y="0.5" width="43" height="43" rx="5.5" fill="#F7F7F8"/>
<rect x="1.25" y="0.5" width="43" height="43" rx="5.5" stroke="#F1F1F3"/>
<g clip-path="url(#clip0_1449_529)">
<path d="M19.0418 30.1256C26.5871 30.1256 30.7152 23.8729 30.7152 18.4522C30.7152 18.2764 30.7113 18.0967 30.7035 17.9209C31.5066 17.3402 32.1996 16.6208 32.75 15.7967C32.0021 16.1294 31.208 16.3468 30.3949 16.4412C31.2511 15.928 31.8921 15.1218 32.1992 14.1721C31.3938 14.6494 30.513 14.9861 29.5945 15.1678C28.9757 14.5102 28.1575 14.0749 27.2664 13.929C26.3753 13.7831 25.461 13.9348 24.6648 14.3607C23.8686 14.7866 23.2348 15.4629 22.8615 16.285C22.4882 17.1072 22.3962 18.0295 22.5996 18.9092C20.9687 18.8274 19.3733 18.4037 17.9167 17.6657C16.46 16.9277 15.1747 15.8918 14.1441 14.6252C13.6203 15.5283 13.46 16.597 13.6959 17.614C13.9317 18.6311 14.5459 19.5201 15.4137 20.1006C14.7622 20.0799 14.125 19.9045 13.5547 19.5889V19.6397C13.5541 20.5874 13.8817 21.5061 14.4819 22.2396C15.0821 22.9731 15.9178 23.4761 16.8469 23.6631C16.2434 23.8282 15.61 23.8523 14.9957 23.7334C15.2579 24.5485 15.768 25.2614 16.4548 25.7726C17.1416 26.2838 17.9709 26.5678 18.827 26.585C17.3737 27.7265 15.5785 28.3457 13.7305 28.3428C13.4027 28.3423 13.0753 28.3222 12.75 28.2826C14.6274 29.4871 16.8113 30.1268 19.0418 30.1256Z" fill="#2EB454"/>
</g>
<defs>
<clipPath id="clip0_1449_529">
<rect width="20" height="20" fill="white" transform="translate(12.75 12)"/>
</clipPath>
</defs>
</svg>
