<svg width="33" height="33" viewBox="0 0 33 33" fill="none" xmlns="http://www.w3.org/2000/svg">
<path d="M27.7937 3.36151H5.20707C4.95317 3.35799 4.70107 3.40451 4.46516 3.49843C4.22924 3.59234 4.01414 3.73181 3.83213 3.90886C3.65013 4.08592 3.50478 4.29709 3.40439 4.53033C3.30401 4.76356 3.25055 5.01429 3.24707 5.26818V28.1215C3.25055 28.3754 3.30401 28.6261 3.40439 28.8594C3.50478 29.0926 3.65013 29.3038 3.83213 29.4808C4.01414 29.6579 4.22924 29.7974 4.46516 29.8913C4.70107 29.9852 4.95317 30.0317 5.20707 30.0282H27.7937C28.0476 30.0317 28.2997 29.9852 28.5357 29.8913C28.7716 29.7974 28.9867 29.6579 29.1687 29.4808C29.3507 29.3038 29.496 29.0926 29.5964 28.8594C29.6968 28.6261 29.7503 28.3754 29.7537 28.1215V5.26818C29.7503 5.01429 29.6968 4.76356 29.5964 4.53033C29.496 4.29709 29.3507 4.08592 29.1687 3.90886C28.9867 3.73181 28.7716 3.59234 28.5357 3.49843C28.2997 3.40451 28.0476 3.35799 27.7937 3.36151ZM11.2871 25.6815H7.28707V13.6815H11.2871V25.6815ZM9.28707 12.0015C8.73542 12.0015 8.20636 11.7824 7.81629 11.3923C7.42621 11.0022 7.20707 10.4732 7.20707 9.92151C7.20707 9.36986 7.42621 8.84081 7.81629 8.45073C8.20636 8.06066 8.73542 7.84151 9.28707 7.84151C9.58 7.80829 9.87664 7.83732 10.1576 7.92669C10.4385 8.01606 10.6974 8.16377 10.9173 8.36013C11.1372 8.55649 11.3131 8.79709 11.4336 9.06616C11.554 9.33523 11.6163 9.62671 11.6163 9.92151C11.6163 10.2163 11.554 10.5078 11.4336 10.7769C11.3131 11.0459 11.1372 11.2865 10.9173 11.4829C10.6974 11.6793 10.4385 11.827 10.1576 11.9163C9.87664 12.0057 9.58 12.0347 9.28707 12.0015ZM25.7137 25.6815H21.7137V19.2415C21.7137 17.6282 21.1404 16.5748 19.6871 16.5748C19.2373 16.5781 18.7993 16.7192 18.4322 16.9791C18.065 17.2389 17.7864 17.6051 17.6337 18.0282C17.5294 18.3416 17.4842 18.6716 17.5004 19.0015V25.6682H13.5004C13.5004 25.6682 13.5004 14.7615 13.5004 13.6682H17.5004V15.3615C17.8638 14.731 18.3923 14.2115 19.029 13.8591C19.6657 13.5067 20.3865 13.3346 21.1137 13.3615C23.7804 13.3615 25.7137 15.0815 25.7137 18.7748V25.6815Z" fill="#6E6E63"/>
</svg>
