<svg width="45" height="44" viewBox="0 0 45 44" fill="none" xmlns="http://www.w3.org/2000/svg">
<rect x="1.25" y="0.5" width="43" height="43" rx="5.5" fill="#F7F7F8"/>
<rect x="1.25" y="0.5" width="43" height="43" rx="5.5" stroke="#F1F1F3"/>
<g clip-path="url(#clip0_1449_532)">
<path d="M31.2695 12H14.2266C13.4102 12 12.75 12.6445 12.75 13.4414V30.5547C12.75 31.3516 13.4102 32 14.2266 32H31.2695C32.0859 32 32.75 31.3516 32.75 30.5586V13.4414C32.75 12.6445 32.0859 12 31.2695 12ZM18.6836 29.043H15.7148V19.4961H18.6836V29.043ZM17.1992 18.1953C16.2461 18.1953 15.4766 17.4258 15.4766 16.4766C15.4766 15.5273 16.2461 14.7578 17.1992 14.7578C18.1484 14.7578 18.918 15.5273 18.918 16.4766C18.918 17.4219 18.1484 18.1953 17.1992 18.1953ZM29.793 29.043H26.8281V24.4023C26.8281 23.2969 26.8086 21.8711 25.2852 21.8711C23.7422 21.8711 23.5078 23.0781 23.5078 24.3242V29.043H20.5469V19.4961H23.3906V20.8008H23.4297C23.8242 20.0508 24.793 19.2578 26.2344 19.2578C29.2383 19.2578 29.793 21.2344 29.793 23.8047V29.043Z" fill="#2EB454"/>
</g>
<defs>
<clipPath id="clip0_1449_532">
<rect width="20" height="20" fill="white" transform="translate(12.75 12)"/>
</clipPath>
</defs>
</svg>
