<svg width="71" height="71" viewBox="0 0 71 71" fill="none" xmlns="http://www.w3.org/2000/svg">
<rect width="71" height="71" rx="4" fill="#B8B7A5"/>
<path d="M51.4509 45.924L49.9273 40.0427L45.1278 22.3836C45.0241 21.994 44.7702 21.6615 44.4218 21.4587C44.0734 21.256 43.6588 21.1995 43.2689 21.3018L37.3724 22.8254C37.2317 22.6695 37.0602 22.5443 36.8688 22.4578C36.6774 22.3713 36.4702 22.3252 36.2601 22.3226H21.0236C20.6196 22.3226 20.232 22.4832 19.9463 22.7689C19.6605 23.0546 19.5 23.4422 19.5 23.8463V48.2247C19.5 48.6288 19.6605 49.0163 19.9463 49.302C20.232 49.5878 20.6196 49.7483 21.0236 49.7483H36.2601C36.6642 49.7483 37.0518 49.5878 37.3375 49.302C37.6233 49.0163 37.7838 48.6288 37.7838 48.2247V36.0355L41.1358 48.5599C41.2251 48.8923 41.4243 49.1846 41.701 49.3894C41.9776 49.5941 42.3155 49.6992 42.6595 49.6874C42.7911 49.7023 42.924 49.7023 43.0556 49.6874L50.4148 47.7219C50.6094 47.6698 50.7917 47.5798 50.9512 47.4569C51.1108 47.3339 51.2444 47.1806 51.3443 47.0057C51.505 46.6687 51.5427 46.2859 51.4509 45.924ZM27.0725 46.762H22.5016V43.7147H27.0725V46.762ZM27.0725 40.6674H22.5016V31.5255H27.0725V40.6674ZM27.0725 28.4782H22.5016V25.4309H27.0725V28.4782ZM34.6908 46.762H30.1198V43.7147H34.6908V46.762ZM34.6908 40.6674H30.1198V31.5255H34.6908V40.6674ZM34.6908 28.4782H30.1198V25.4309H34.6908V28.4782ZM38.119 25.827L42.5376 24.6386L43.3299 27.5792L38.9113 28.7677L38.119 25.827ZM42.0652 40.5455L39.7036 31.7083L44.1222 30.5199L46.4838 39.357L42.0652 40.5455ZM43.5889 46.4268L42.7966 43.4861L47.2152 42.2977L48.0075 45.2383L43.5889 46.4268Z" fill="#1C3438"/>
</svg>
