<svg width="72" height="71" viewBox="0 0 72 71" fill="none" xmlns="http://www.w3.org/2000/svg">
<rect x="0.5" width="71" height="71" rx="6" fill="#FFF8F7"/>
<path d="M48.0197 41.0292C48.7546 40.1907 49.1619 39.1149 49.1663 37.9999C49.1663 36.7622 48.6747 35.5752 47.7995 34.7001C46.9243 33.8249 45.7374 33.3332 44.4997 33.3332C43.262 33.3332 42.075 33.8249 41.1998 34.7001C40.3247 35.5752 39.833 36.7622 39.833 37.9999C39.8375 39.1149 40.2447 40.1907 40.9797 41.0292C40.0196 41.6243 39.227 42.4542 38.6764 43.4405C38.1259 44.4268 37.8356 45.537 37.833 46.6666C37.833 47.0202 37.9735 47.3593 38.2235 47.6094C38.4736 47.8594 38.8127 47.9999 39.1663 47.9999C39.52 47.9999 39.8591 47.8594 40.1091 47.6094C40.3592 47.3593 40.4997 47.0202 40.4997 46.6666C40.4997 45.6057 40.9211 44.5883 41.6712 43.8381C42.4214 43.088 43.4388 42.6666 44.4997 42.6666C45.5605 42.6666 46.578 43.088 47.3281 43.8381C48.0782 44.5883 48.4997 45.6057 48.4997 46.6666C48.4997 47.0202 48.6402 47.3593 48.8902 47.6094C49.1402 47.8594 49.4794 47.9999 49.833 47.9999C50.1866 47.9999 50.5258 47.8594 50.7758 47.6094C51.0259 47.3593 51.1663 47.0202 51.1663 46.6666C51.1637 45.537 50.8735 44.4268 50.3229 43.4405C49.7724 42.4542 48.9797 41.6243 48.0197 41.0292ZM44.4997 39.9999C44.1041 39.9999 43.7174 39.8826 43.3885 39.6628C43.0596 39.4431 42.8033 39.1307 42.6519 38.7653C42.5005 38.3998 42.4609 37.9977 42.5381 37.6097C42.6153 37.2217 42.8058 36.8654 43.0855 36.5857C43.3652 36.306 43.7215 36.1155 44.1095 36.0383C44.4975 35.9612 44.8996 36.0008 45.265 36.1521C45.6305 36.3035 45.9429 36.5599 46.1626 36.8888C46.3824 37.2177 46.4997 37.6043 46.4997 37.9999C46.499 38.5301 46.288 39.0384 45.9131 39.4133C45.5382 39.7882 45.0299 39.9992 44.4997 39.9999ZM29.557 30.2759L32.2237 32.9426C32.4751 33.1854 32.8119 33.3198 33.1615 33.3168C33.5111 33.3138 33.8456 33.1735 34.0928 32.9263C34.34 32.6791 34.4802 32.3447 34.4832 31.9951C34.4863 31.6455 34.3519 31.3087 34.109 31.0572L33.7183 30.6666H39.281L38.8903 31.0572C38.763 31.1802 38.6614 31.3273 38.5915 31.49C38.5217 31.6527 38.4849 31.8277 38.4833 32.0047C38.4818 32.1817 38.5155 32.3573 38.5826 32.5212C38.6496 32.685 38.7486 32.8339 38.8738 32.9591C38.999 33.0843 39.1479 33.1833 39.3117 33.2503C39.4756 33.3174 39.6512 33.3511 39.8282 33.3496C40.0052 33.348 40.1802 33.3112 40.3429 33.2414C40.5056 33.1715 40.6527 33.0699 40.7757 32.9426L43.4423 30.2759C43.691 30.0252 43.8305 29.6863 43.8305 29.3332C43.8305 28.9801 43.691 28.6413 43.4423 28.3906L40.7757 25.7239C40.5242 25.481 40.1874 25.3466 39.8378 25.3497C39.4882 25.3527 39.1538 25.4929 38.9066 25.7401C38.6594 25.9873 38.5191 26.3218 38.5161 26.6714C38.5131 27.021 38.6475 27.3578 38.8903 27.6092L39.281 27.9999H33.7183L34.109 27.6092C34.3519 27.3578 34.4863 27.021 34.4832 26.6714C34.4802 26.3218 34.34 25.9873 34.0928 25.7401C33.8456 25.4929 33.5111 25.3527 33.1615 25.3497C32.8119 25.3466 32.4751 25.481 32.2237 25.7239L29.557 28.3906C29.3083 28.6413 29.1688 28.9801 29.1688 29.3332C29.1688 29.6863 29.3083 30.0252 29.557 30.2759ZM32.0197 41.0292C32.7546 40.1907 33.1619 39.1149 33.1663 37.9999C33.1663 36.7622 32.6747 35.5752 31.7995 34.7001C30.9243 33.8249 29.7374 33.3332 28.4997 33.3332C27.262 33.3332 26.075 33.8249 25.1998 34.7001C24.3247 35.5752 23.833 36.7622 23.833 37.9999C23.8375 39.1149 24.2447 40.1907 24.9797 41.0292C24.0196 41.6243 23.227 42.4542 22.6764 43.4405C22.1259 44.4268 21.8356 45.537 21.833 46.6666C21.833 47.0202 21.9735 47.3593 22.2235 47.6094C22.4736 47.8594 22.8127 47.9999 23.1663 47.9999C23.52 47.9999 23.8591 47.8594 24.1092 47.6094C24.3592 47.3593 24.4997 47.0202 24.4997 46.6666C24.4997 45.6057 24.9211 44.5883 25.6712 43.8381C26.4214 43.088 27.4388 42.6666 28.4997 42.6666C29.5605 42.6666 30.578 43.088 31.3281 43.8381C32.0782 44.5883 32.4997 45.6057 32.4997 46.6666C32.4997 47.0202 32.6402 47.3593 32.8902 47.6094C33.1402 47.8594 33.4794 47.9999 33.833 47.9999C34.1866 47.9999 34.5258 47.8594 34.7758 47.6094C35.0259 47.3593 35.1663 47.0202 35.1663 46.6666C35.1637 45.537 34.8735 44.4268 34.3229 43.4405C33.7724 42.4542 32.9797 41.6243 32.0197 41.0292ZM28.4997 39.9999C28.1041 39.9999 27.7174 39.8826 27.3885 39.6628C27.0596 39.4431 26.8033 39.1307 26.6519 38.7653C26.5005 38.3998 26.4609 37.9977 26.5381 37.6097C26.6153 37.2217 26.8058 36.8654 27.0855 36.5857C27.3652 36.306 27.7215 36.1155 28.1095 36.0383C28.4975 35.9612 28.8996 36.0008 29.265 36.1521C29.6305 36.3035 29.9429 36.5599 30.1626 36.8888C30.3824 37.2177 30.4997 37.6043 30.4997 37.9999C30.499 38.5301 30.288 39.0384 29.9131 39.4133C29.5382 39.7882 29.0299 39.9992 28.4997 39.9999Z" fill="#BA1A1A"/>
</svg>
