<svg width="71" height="71" viewBox="0 0 71 71" fill="none" xmlns="http://www.w3.org/2000/svg">
<rect width="71" height="71" rx="4" fill="#B8B7A5"/>
<path d="M32.3 37.1C31.9836 37.1 31.6742 37.1938 31.4111 37.3696C31.148 37.5455 30.9429 37.7953 30.8218 38.0877C30.7007 38.3801 30.669 38.7018 30.7307 39.0121C30.7925 39.3225 30.9449 39.6076 31.1686 39.8314C31.3924 40.0551 31.6775 40.2075 31.9879 40.2693C32.2982 40.331 32.6199 40.2993 32.9123 40.1782C33.2047 40.0571 33.4545 39.852 33.6304 39.5889C33.8062 39.3258 33.9 39.0165 33.9 38.7C33.9 38.2757 33.7314 37.8687 33.4314 37.5686C33.1313 37.2686 32.7243 37.1 32.3 37.1ZM32.3 30.7C31.9836 30.7 31.6742 30.7938 31.4111 30.9696C31.148 31.1455 30.9429 31.3953 30.8218 31.6877C30.7007 31.9801 30.669 32.3018 30.7307 32.6121C30.7925 32.9225 30.9449 33.2076 31.1686 33.4314C31.3924 33.6551 31.6775 33.8075 31.9879 33.8693C32.2982 33.931 32.6199 33.8993 32.9123 33.7782C33.2047 33.6571 33.4545 33.452 33.6304 33.1889C33.8062 32.9258 33.9 32.6165 33.9 32.3C33.9 31.8757 33.7314 31.4687 33.4314 31.1686C33.1313 30.8686 32.7243 30.7 32.3 30.7ZM38.7 30.7C38.3836 30.7 38.0742 30.7938 37.8111 30.9696C37.548 31.1455 37.3429 31.3953 37.2218 31.6877C37.1007 31.9801 37.069 32.3018 37.1307 32.6121C37.1925 32.9225 37.3449 33.2076 37.5686 33.4314C37.7924 33.6551 38.0775 33.8075 38.3879 33.8693C38.6982 33.931 39.0199 33.8993 39.3123 33.7782C39.6047 33.6571 39.8545 33.452 40.0304 33.1889C40.2062 32.9258 40.3 32.6165 40.3 32.3C40.3 31.8757 40.1314 31.4687 39.8314 31.1686C39.5313 30.8686 39.1243 30.7 38.7 30.7ZM49.9 37.1C50.3243 37.1 50.7313 36.9314 51.0314 36.6314C51.3314 36.3313 51.5 35.9243 51.5 35.5C51.5 35.0757 51.3314 34.6687 51.0314 34.3686C50.7313 34.0686 50.3243 33.9 49.9 33.9H46.7V30.7H49.9C50.3243 30.7 50.7313 30.5314 51.0314 30.2314C51.3314 29.9313 51.5 29.5243 51.5 29.1C51.5 28.6757 51.3314 28.2687 51.0314 27.9686C50.7313 27.6686 50.3243 27.5 49.9 27.5H46.412C46.1731 26.829 45.7878 26.2195 45.2842 25.7158C44.7805 25.2122 44.171 24.8269 43.5 24.588V21.1C43.5 20.6757 43.3314 20.2687 43.0314 19.9686C42.7313 19.6686 42.3243 19.5 41.9 19.5C41.4757 19.5 41.0687 19.6686 40.7686 19.9686C40.4686 20.2687 40.3 20.6757 40.3 21.1V24.3H37.1V21.1C37.1 20.6757 36.9314 20.2687 36.6314 19.9686C36.3313 19.6686 35.9243 19.5 35.5 19.5C35.0757 19.5 34.6687 19.6686 34.3686 19.9686C34.0686 20.2687 33.9 20.6757 33.9 21.1V24.3H30.7V21.1C30.7 20.6757 30.5314 20.2687 30.2314 19.9686C29.9313 19.6686 29.5243 19.5 29.1 19.5C28.6757 19.5 28.2687 19.6686 27.9686 19.9686C27.6686 20.2687 27.5 20.6757 27.5 21.1V24.588C26.829 24.8269 26.2195 25.2122 25.7158 25.7158C25.2122 26.2195 24.8269 26.829 24.588 27.5H21.1C20.6757 27.5 20.2687 27.6686 19.9686 27.9686C19.6686 28.2687 19.5 28.6757 19.5 29.1C19.5 29.5243 19.6686 29.9313 19.9686 30.2314C20.2687 30.5314 20.6757 30.7 21.1 30.7H24.3V33.9H21.1C20.6757 33.9 20.2687 34.0686 19.9686 34.3686C19.6686 34.6687 19.5 35.0757 19.5 35.5C19.5 35.9243 19.6686 36.3313 19.9686 36.6314C20.2687 36.9314 20.6757 37.1 21.1 37.1H24.3V40.3H21.1C20.6757 40.3 20.2687 40.4686 19.9686 40.7686C19.6686 41.0687 19.5 41.4757 19.5 41.9C19.5 42.3243 19.6686 42.7313 19.9686 43.0314C20.2687 43.3314 20.6757 43.5 21.1 43.5H24.588C24.8269 44.171 25.2122 44.7805 25.7158 45.2842C26.2195 45.7878 26.829 46.1731 27.5 46.412V49.9C27.5 50.3243 27.6686 50.7313 27.9686 51.0314C28.2687 51.3314 28.6757 51.5 29.1 51.5C29.5243 51.5 29.9313 51.3314 30.2314 51.0314C30.5314 50.7313 30.7 50.3243 30.7 49.9V46.7H33.9V49.9C33.9 50.3243 34.0686 50.7313 34.3686 51.0314C34.6687 51.3314 35.0757 51.5 35.5 51.5C35.9243 51.5 36.3313 51.3314 36.6314 51.0314C36.9314 50.7313 37.1 50.3243 37.1 49.9V46.7H40.3V49.9C40.3 50.3243 40.4686 50.7313 40.7686 51.0314C41.0687 51.3314 41.4757 51.5 41.9 51.5C42.3243 51.5 42.7313 51.3314 43.0314 51.0314C43.3314 50.7313 43.5 50.3243 43.5 49.9V46.412C44.171 46.1731 44.7805 45.7878 45.2842 45.2842C45.7878 44.7805 46.1731 44.171 46.412 43.5H49.9C50.3243 43.5 50.7313 43.3314 51.0314 43.0314C51.3314 42.7313 51.5 42.3243 51.5 41.9C51.5 41.4757 51.3314 41.0687 51.0314 40.7686C50.7313 40.4686 50.3243 40.3 49.9 40.3H46.7V37.1H49.9ZM43.5 41.9C43.5 42.3243 43.3314 42.7313 43.0314 43.0314C42.7313 43.3314 42.3243 43.5 41.9 43.5H29.1C28.6757 43.5 28.2687 43.3314 27.9686 43.0314C27.6686 42.7313 27.5 42.3243 27.5 41.9V29.1C27.5 28.6757 27.6686 28.2687 27.9686 27.9686C28.2687 27.6686 28.6757 27.5 29.1 27.5H41.9C42.3243 27.5 42.7313 27.6686 43.0314 27.9686C43.3314 28.2687 43.5 28.6757 43.5 29.1V41.9ZM38.7 37.1C38.3836 37.1 38.0742 37.1938 37.8111 37.3696C37.548 37.5455 37.3429 37.7953 37.2218 38.0877C37.1007 38.3801 37.069 38.7018 37.1307 39.0121C37.1925 39.3225 37.3449 39.6076 37.5686 39.8314C37.7924 40.0551 38.0775 40.2075 38.3879 40.2693C38.6982 40.331 39.0199 40.2993 39.3123 40.1782C39.6047 40.0571 39.8545 39.852 40.0304 39.5889C40.2062 39.3258 40.3 39.0165 40.3 38.7C40.3 38.2757 40.1314 37.8687 39.8314 37.5686C39.5313 37.2686 39.1243 37.1 38.7 37.1Z" fill="#334B4F"/>
</svg>
