<svg width="72" height="71" viewBox="0 0 72 71" fill="none" xmlns="http://www.w3.org/2000/svg">
<rect x="0.5" width="71" height="71" rx="6" fill="#F7FFEE"/>
<path d="M49.0068 27.6799C48.9613 27.5096 48.8825 27.3501 48.7749 27.2105C48.6673 27.0709 48.5331 26.954 48.3801 26.8666L41.4468 22.8666C41.2954 22.7778 41.128 22.7199 40.9542 22.696C40.7803 22.6721 40.6035 22.6828 40.4338 22.7274C40.2641 22.772 40.1049 22.8496 39.9653 22.9559C39.8256 23.0621 39.7083 23.1949 39.6201 23.3466L36.5001 28.7599L33.3801 23.3466C33.2919 23.1949 33.1746 23.0621 33.035 22.9559C32.8954 22.8496 32.7361 22.772 32.5664 22.7274C32.3967 22.6828 32.2199 22.6721 32.0461 22.696C31.8722 22.7199 31.7048 22.7778 31.5535 22.8666L24.6201 26.8666C24.4671 26.954 24.3329 27.0709 24.2254 27.2105C24.1178 27.3501 24.039 27.5096 23.9935 27.6799C23.9052 28.0178 23.9531 28.3769 24.1268 28.6799L29.4601 37.7866C28.8651 38.8766 28.5362 40.0919 28.5001 41.3332C28.497 42.5443 28.7688 43.7402 29.2951 44.8309C29.8214 45.9216 30.5885 46.8786 31.5385 47.6297C32.4885 48.3808 33.5966 48.9064 34.7793 49.1669C35.962 49.4274 37.1884 49.416 38.366 49.1335C39.5437 48.8511 40.6418 48.3049 41.5777 47.5363C42.5135 46.7676 43.2627 45.7965 43.7686 44.6962C44.2745 43.5959 44.524 42.3951 44.4983 41.1843C44.4726 39.9735 44.1723 38.7844 43.6201 37.7066L48.8201 28.6932C48.9169 28.5451 48.9833 28.3793 49.0153 28.2053C49.0473 28.0313 49.0445 27.8527 49.0068 27.6799ZM27.1668 28.5066L31.7801 25.8399L36.0735 33.3332C34.2434 33.4463 32.5092 34.1909 31.1668 35.4399L27.1668 28.5066ZM36.5001 46.6666C35.0856 46.6666 33.7291 46.1047 32.7289 45.1045C31.7287 44.1043 31.1668 42.7477 31.1668 41.3332C31.1668 39.9187 31.7287 38.5622 32.7289 37.562C33.7291 36.5618 35.0856 35.9999 36.5001 35.9999C37.9146 35.9999 39.2712 36.5618 40.2714 37.562C41.2716 38.5622 41.8335 39.9187 41.8335 41.3332C41.8335 42.7477 41.2716 44.1043 40.2714 45.1045C39.2712 46.1047 37.9146 46.6666 36.5001 46.6666ZM41.8335 35.3999C41.1096 34.7387 40.2685 34.2187 39.3535 33.8666L38.0468 31.4266L41.2735 25.8399L45.8868 28.5066L41.8335 35.3999Z" fill="#038B00"/>
</svg>
